<svg xmlns="http://www.w3.org/2000/svg" xmlns:xlink="http://www.w3.org/1999/xlink" fill="none" version="1.1" width="988.03515625" height="116.606689453125" viewBox="0 0 988.03515625 116.606689453125"><g><g><path d="M143.87515625,84.923044921875L132.35515625,84.923044921875L132.35515625,39.347044921874996L154.09915625,39.347044921874996Q162.66715625,39.347044921874996,166.59115624999998,43.199044921875Q170.51515625,47.051044921875,170.51515625,54.539044921875Q170.51515625,60.155044921875,167.70715625,64.151044921875Q164.89915625,68.147044921875,160.29115625,69.155044921875L160.21915625,69.371044921875Q162.01915625,70.523044921875,164.17915625,73.187044921875Q166.33915625,75.851044921875,168.46315625,78.983044921875Q170.58715625,82.115044921875,172.24315625,84.851044921875L172.24315625,84.923044921875L158.85115625,84.923044921875L151.07515625,73.403044921875Q150.06715625,71.891044921875,149.45515625000002,71.243044921875Q148.84315625,70.595044921875,148.01515625,70.451044921875Q147.18715625,70.30704492187499,145.38715625,70.30704492187499L143.87515625,70.30704492187499L143.87515625,84.923044921875ZM152.22715625,48.707044921875L143.87515625,48.707044921875L143.87515625,60.947044921875L152.22715625,60.947044921875Q155.82715625,60.947044921875,157.23115625,59.507044921875Q158.63515625,58.067044921875,158.63515625,54.827044921875Q158.63515625,51.587044921875,157.23115625,50.147044921875Q155.82715625,48.707044921875,152.22715625,48.707044921875ZM176.27515625,67.643044921875Q176.27515625,57.995044921875,180.37915625,53.747044921875Q184.48315625,49.499044921875,194.27515625,49.499044921875Q200.82715625,49.499044921875,204.78715625,51.371044921875Q208.74715625,53.243044921875,210.51115625,57.239044921875Q212.27515625,61.235044921875,212.27515625,67.643044921875Q212.27515625,73.979044921875,210.51115625,77.939044921875Q208.74715625,81.899044921875,204.78715625,83.735044921875Q200.82715625,85.571044921875,194.27515625,85.571044921875Q184.48315625,85.571044921875,180.37915625,81.359044921875Q176.27515625,77.147044921875,176.27515625,67.643044921875ZM194.27515625,75.707044921875Q198.45115625,75.707044921875,199.92715625,73.871044921875Q201.40315625,72.035044921875,201.40315625,67.427044921875Q201.40315625,63.035044921875,199.92715625,61.127044921875Q198.45115625,59.219044921875,194.27515625,59.219044921875Q190.24315625,59.219044921875,188.69515625,61.127044921875Q187.14715625,63.035044921875,187.14715625,67.427044921875Q187.14715625,72.035044921875,188.69515625,73.871044921875Q190.24315625,75.707044921875,194.27515625,75.707044921875ZM253.96315625,65.84304492187499Q253.96315625,75.563044921875,250.00315625000002,80.567044921875Q246.04315624999998,85.571044921875,236.53915625000002,85.571044921875Q231.21115625,85.571044921875,226.63915624999998,85.175044921875Q222.06715624999998,84.779044921875,218.61115625,84.203044921875L218.39515625,84.059044921875L218.39515625,36.467044921875L229.91515625,36.467044921875L229.91515625,55.259044921875L230.20315625,55.259044921875Q231.21115625,52.667044921875,233.55115625000002,51.083044921875Q235.89115625,49.499044921875,240.21115625,49.499044921875Q253.96315625,49.499044921875,253.96315625,65.84304492187499ZM229.91515625,67.06704492187501L229.91515625,75.491044921875Q231.64315625,75.779044921875,233.94715625,75.779044921875Q237.33115625,75.779044921875,239.23915625,75.167044921875Q241.14715625,74.555044921875,241.93915625,72.755044921875Q242.73115625,70.955044921875,242.73115625,67.571044921875Q242.73115625,63.323044921875,241.50715624999998,61.307044921875Q240.28315625,59.291044921875,236.46715625000002,59.291044921875Q233.58715625000002,59.291044921875,231.75115625,61.055044921875Q229.91515625,62.819044921875,229.91515625,67.06704492187501ZM257.56315625,67.643044921875Q257.56315625,57.995044921875,261.66715625,53.747044921875Q265.77115625,49.499044921875,275.56315625,49.499044921875Q282.11515625000004,49.499044921875,286.07515624999996,51.371044921875Q290.03515625,53.243044921875,291.79915625,57.239044921875Q293.56315625,61.235044921875,293.56315625,67.643044921875Q293.56315625,73.979044921875,291.79915625,77.939044921875Q290.03515625,81.899044921875,286.07515624999996,83.735044921875Q282.11515625000004,85.571044921875,275.56315625,85.571044921875Q265.77115625,85.571044921875,261.66715625,81.359044921875Q257.56315625,77.147044921875,257.56315625,67.643044921875ZM275.56315625,75.707044921875Q279.73915625,75.707044921875,281.21515625,73.871044921875Q282.69115625,72.035044921875,282.69115625,67.427044921875Q282.69115625,63.035044921875,281.21515625,61.127044921875Q279.73915625,59.219044921875,275.56315625,59.219044921875Q271.53115625,59.219044921875,269.98315625,61.127044921875Q268.43515625,63.035044921875,268.43515625,67.427044921875Q268.43515625,72.035044921875,269.98315625,73.871044921875Q271.53115625,75.707044921875,275.56315625,75.707044921875ZM300.40315625,74.411044921875L300.40315625,59.291044921875L296.08315625,59.291044921875L296.08315625,49.931044921875L301.48315625,49.931044921875L303.64315625,41.363044921875L311.92315625000003,41.363044921875L311.92315625000003,49.931044921875L319.77115625,49.931044921875L319.77115625,59.291044921875L311.92315625000003,59.291044921875L311.92315625000003,71.891044921875Q311.92315625000003,73.907044921875,312.42715625,74.663044921875Q312.93115624999996,75.419044921875,314.73115625,75.419044921875Q315.88315625,75.419044921875,317.17915625,75.311044921875Q318.47515625,75.203044921875,319.77115625,75.059044921875L319.98715625,75.203044921875L319.98715625,84.563044921875Q316.53115625,85.571044921875,310.84315625,85.571044921875Q305.15515625,85.571044921875,302.77915625,82.979044921875Q300.40315625,80.387044921875,300.40315625,74.411044921875ZM337.33915625,36.827044921875Q337.55515625,39.419044921875,337.55515625,41.147044921875Q337.55515625,42.155044921875,337.51915625000004,43.199044921875Q337.48315625,44.243044921875,337.33915625,45.539044921875Q335.82715625000003,45.827044921875,334.38715625,45.971044921875Q332.94715625000003,46.115044921875,331.50715625,46.115044921875Q330.13915625000004,46.115044921875,328.73515625,45.971044921875Q327.33115625,45.827044921875,325.89115625,45.539044921875Q325.74715625,44.315044921875,325.67515625,43.271044921875Q325.60315625,42.227044921875,325.60315625,41.219044921874996Q325.60315625,40.283044921875,325.67515625,39.203044921875005Q325.74715625,38.123044921875,325.89115625,36.827044921875Q327.33115625,36.467044921875,328.80715625,36.359044921875Q330.28315625,36.251044921875,331.72315625,36.251044921875Q333.09115625000004,36.251044921875,334.49515625000004,36.359044921875Q335.89915625000003,36.467044921875,337.33915625,36.827044921875ZM337.33915625,84.923044921875L325.81915625,84.923044921875L325.81915625,49.859044921875L337.33915625,49.859044921875L337.33915625,84.923044921875ZM372.61915625,74.771044921875L372.61915625,84.131044921875Q370.81915625,84.851044921875,367.29115625,85.211044921875Q363.76315625,85.571044921875,359.80315625000003,85.571044921875Q354.11515625000004,85.571044921875,350.33515625,83.987044921875Q346.55515625,82.403044921875,344.71915624999997,78.515044921875Q342.88315625,74.627044921875,342.81115625,67.715044921875Q342.81115625,60.587044921875,344.79115625,56.627044921875Q346.77115625,52.667044921875,350.58715625,51.083044921875Q354.40315625,49.499044921875,359.73115625,49.499044921875Q362.89915625000003,49.499044921875,366.42715625,49.931044921875Q369.95515624999996,50.363044921875,372.18715625,51.083044921875L372.25915625,60.731044921875L372.04315625000004,60.875044921875Q369.88315625,60.443044921875,367.43515625,60.227044921875Q364.98715625,60.011044921875,362.61115625,60.011044921875Q357.78715625,60.011044921875,355.91515625,61.811044921875Q354.04315625000004,63.611044921875,354.04315625000004,67.859044921875Q354.04315625000004,71.09904492187499,354.83515625,72.683044921875Q355.62715625,74.267044921875,357.49915625,74.771044921875Q359.37115625,75.275044921875,362.61115625,75.275044921875Q365.13115625,75.275044921875,367.43515625,75.059044921875Q369.73915625,74.843044921875,372.33115625,74.555044921875L372.61915625,74.771044921875ZM442.24315625,39.419044921875L428.05915625,84.923044921875L412.21915625,84.923044921875L398.75515625,39.419044921875L411.64315625,39.419044921875Q412.79515625,43.019044921875,414.09115625,47.627044921875Q415.38715625,52.235044921875,416.64715625,57.023044921875Q417.90715625,61.811044921875,418.87915625,65.951044921875Q419.85115625,70.09104492187501,420.35515625,72.827044921875L420.64315625,72.827044921875Q421.14715625,70.09104492187501,422.11915625,65.951044921875Q423.09115625,61.811044921875,424.35115625,57.059044921875Q425.61115625,52.307044921875,426.90715625,47.699044921875Q428.20315625,43.091044921875,429.35515625,39.419044921875L442.24315625,39.419044921875ZM459.73915625,36.827044921875Q459.95515625,39.419044921875,459.95515625,41.147044921875Q459.95515625,42.155044921875,459.91915625,43.199044921875Q459.88315625,44.243044921875,459.73915625,45.539044921875Q458.22715625,45.827044921875,456.78715625,45.971044921875Q455.34715625,46.115044921875,453.90715625,46.115044921875Q452.53915625,46.115044921875,451.13515625,45.971044921875Q449.73115625,45.827044921875,448.29115625,45.539044921875Q448.14715625,44.315044921875,448.07515625,43.271044921875Q448.00315625,42.227044921875,448.00315625,41.219044921874996Q448.00315625,40.283044921875,448.07515625,39.203044921875005Q448.14715625,38.123044921875,448.29115625,36.827044921875Q449.73115625,36.467044921875,451.20715625,36.359044921875Q452.68315625,36.251044921875,454.12315625,36.251044921875Q455.49115625,36.251044921875,456.89515625,36.359044921875Q458.29915625,36.467044921875,459.73915625,36.827044921875ZM459.73915625,84.923044921875L448.21915625,84.923044921875L448.21915625,49.859044921875L459.73915625,49.859044921875L459.73915625,84.923044921875ZM466.14715625,74.987044921875Q471.76315625,76.571044921875,478.60315625,76.571044921875Q481.91515625,76.571044921875,483.57115625,76.355044921875Q485.22715625,76.139044921875,485.80315625,75.635044921875Q486.37915625,75.131044921875,486.37915625,74.267044921875Q486.37915625,73.04304492187501,485.47915625,72.755044921875Q484.57915625,72.467044921875,481.91515625,71.963044921875L476.22715625,70.883044921875Q470.75515625,69.803044921875,468.34315625,67.463044921875Q465.93115625,65.12304492187499,465.93115625,60.443044921875Q465.93115625,54.107044921875,469.71115625,51.803044921875Q473.49115625,49.499044921875,481.77115625,49.499044921875Q486.73915625,49.499044921875,490.51915625,50.039044921875Q494.29915625,50.579044921875,496.81915625,51.371044921875L496.67515625,60.083044921875L496.45915625,60.299044921875Q490.62715625,58.427044921875,483.71515625,58.427044921875Q480.33115625,58.427044921875,478.99915625,58.895044921875Q477.66715625,59.363044921875,477.66715625,60.731044921875Q477.66715625,61.451044921875,478.06315625,61.883044921875Q478.45915625,62.315044921875,479.89915625,62.711044921875Q481.33915625,63.107044921875,484.43515625,63.683044921875L489.69115625,64.691044921875Q494.08315625,65.627044921875,496.17115625,67.78704492187501Q498.25915625,69.947044921875,498.25915625,74.627044921875Q498.25915625,78.731044921875,496.74715625,81.143044921875Q495.23515625,83.555044921875,491.67115625,84.563044921875Q488.10715625,85.571044921875,481.84315625,85.571044921875Q477.09115625,85.571044921875,473.09515625,85.103044921875Q469.09915625,84.635044921875,465.93115625,83.987044921875L465.93115625,75.131044921875L466.14715625,74.987044921875ZM515.89915625,85.571044921875Q509.27515625,85.571044921875,506.46715625,82.043044921875Q503.65915625,78.515044921875,503.65915625,71.963044921875L503.65915625,49.859044921875L515.17915625,49.859044921875L515.25115625,69.155044921875Q515.25115625,72.395044921875,516.4031562499999,73.727044921875Q517.55515625,75.059044921875,521.08315625,75.059044921875Q524.46715625,75.059044921875,525.65515625,73.871044921875Q526.84315625,72.683044921875,526.91515625,69.803044921875L526.91515625,49.859044921875L538.43515625,49.859044921875L538.43515625,84.923044921875L527.49115625,84.923044921875L526.91515625,80.963044921875L526.69915625,80.963044921875Q525.7631562500001,83.051044921875,522.88315625,84.311044921875Q520.0031562500001,85.571044921875,515.89915625,85.571044921875ZM560.39515625,49.499044921875Q567.3071562499999,49.499044921875,571.55515625,50.939044921875Q575.80315625,52.379044921875,577.78315625,56.231044921875Q579.7631562500001,60.083044921875,579.7631562500001,67.35504492187499L579.7631562500001,84.923044921875L569.32315625,84.923044921875L568.96315625,81.611044921875L568.74715625,81.611044921875Q567.37915625,83.411044921875,564.4991562499999,84.491044921875Q561.6191562500001,85.571044921875,557.01115625,85.571044921875Q544.55515625,85.571044921875,544.55515625,73.907044921875Q544.55515625,68.939044921875,547.83115625,66.095044921875Q551.10715625,63.251044921875,558.1631562499999,63.251044921875L568.81915625,63.251044921875Q568.31515625,60.227044921875,566.22715625,59.183044921875Q564.13915625,58.139044921875,559.0991562500001,58.139044921875Q555.93115625,58.139044921875,552.87115625,58.607044921875Q549.8111562500001,59.075044921875,547.50715625,59.651044921875L547.29115625,59.507044921875L547.36315625,51.155044921875Q548.80315625,50.723044921875,551.03515625,50.327044921875Q553.26715625,49.931044921875,555.75115625,49.715044921875Q558.23515625,49.499044921875,560.39515625,49.499044921875ZM559.96315625,77.075044921875Q564.42715625,77.075044921875,566.65915625,75.959044921875Q568.89115625,74.843044921875,568.96315625,72.395044921875L568.96315625,70.595044921875L560.8271562499999,70.595044921875Q557.65915625,70.595044921875,556.39915625,71.495044921875Q555.13915625,72.395044921875,555.13915625,73.907044921875Q555.13915625,75.707044921875,556.43515625,76.391044921875Q557.73115625,77.075044921875,559.96315625,77.075044921875ZM598.84315625,84.923044921875L587.32315625,84.923044921875L587.32315625,36.467044921875L598.84315625,36.467044921875L598.84315625,84.923044921875ZM640.60315625,84.923044921875L629.08315625,84.923044921875L629.08315625,39.347044921874996L640.60315625,39.347044921874996L640.60315625,84.923044921875ZM660.76315625,84.923044921875L649.24315625,84.923044921875L649.24315625,49.859044921875L660.18715625,49.859044921875L660.76315625,56.267044921875L660.97915625,56.267044921875Q661.98715625,53.027044921875,664.57915625,51.263044921875Q667.17115625,49.499044921875,671.77915625,49.499044921875Q678.04315625,49.499044921875,681.03115625,53.027044921875Q684.01915625,56.555044921875,684.01915625,65.267044921875L684.01915625,84.923044921875L672.49915625,84.923044921875L672.42715625,67.499044921875Q672.42715625,63.467044921875,671.20315625,61.739044921875Q669.97915625,60.011044921875,666.59515625,60.011044921875Q663.42715625,60.011044921875,662.13115625,61.559044921875Q660.83515625,63.107044921875,660.76315625,66.851044921875L660.76315625,84.923044921875ZM690.35515625,74.987044921875Q695.97115625,76.571044921875,702.81115625,76.571044921875Q706.12315625,76.571044921875,707.77915625,76.355044921875Q709.43515625,76.139044921875,710.01115625,75.635044921875Q710.58715625,75.131044921875,710.58715625,74.267044921875Q710.58715625,73.04304492187501,709.68715625,72.755044921875Q708.78715625,72.467044921875,706.12315625,71.963044921875L700.43515625,70.883044921875Q694.96315625,69.803044921875,692.55115625,67.463044921875Q690.13915625,65.12304492187499,690.13915625,60.443044921875Q690.13915625,54.107044921875,693.91915625,51.803044921875Q697.69915625,49.499044921875,705.97915625,49.499044921875Q710.94715625,49.499044921875,714.72715625,50.039044921875Q718.50715625,50.579044921875,721.02715625,51.371044921875L720.88315625,60.083044921875L720.66715625,60.299044921875Q714.83515625,58.427044921875,707.92315625,58.427044921875Q704.53915625,58.427044921875,703.20715625,58.895044921875Q701.87515625,59.363044921875,701.87515625,60.731044921875Q701.87515625,61.451044921875,702.27115625,61.883044921875Q702.66715625,62.315044921875,704.10715625,62.711044921875Q705.54715625,63.107044921875,708.64315625,63.683044921875L713.89915625,64.691044921875Q718.29115625,65.627044921875,720.37915625,67.78704492187501Q722.46715625,69.947044921875,722.46715625,74.627044921875Q722.46715625,78.731044921875,720.95515625,81.143044921875Q719.44315625,83.555044921875,715.87915625,84.563044921875Q712.31515625,85.571044921875,706.05115625,85.571044921875Q701.29915625,85.571044921875,697.30315625,85.103044921875Q693.30715625,84.635044921875,690.13915625,83.987044921875L690.13915625,75.131044921875L690.35515625,74.987044921875ZM729.30715625,74.411044921875L729.30715625,59.291044921875L724.98715625,59.291044921875L724.98715625,49.931044921875L730.38715625,49.931044921875L732.54715625,41.363044921875L740.82715625,41.363044921875L740.82715625,49.931044921875L748.67515625,49.931044921875L748.67515625,59.291044921875L740.82715625,59.291044921875L740.82715625,71.891044921875Q740.82715625,73.907044921875,741.33115625,74.663044921875Q741.83515625,75.419044921875,743.63515625,75.419044921875Q744.78715625,75.419044921875,746.08315625,75.311044921875Q747.37915625,75.203044921875,748.67515625,75.059044921875L748.89115625,75.203044921875L748.89115625,84.563044921875Q745.43515625,85.571044921875,739.74715625,85.571044921875Q734.05915625,85.571044921875,731.68315625,82.979044921875Q729.30715625,80.387044921875,729.30715625,74.411044921875ZM766.89115625,84.923044921875L755.37115625,84.923044921875L755.37115625,49.859044921875L764.73115625,49.859044921875L765.66715625,57.059044921875L765.88315625,57.059044921875Q766.53115625,53.027044921875,768.97915625,51.263044921875Q771.42715625,49.499044921875,776.25115625,49.499044921875Q778.19515625,49.499044921875,779.77915625,49.679044921875Q781.36315625,49.859044921875,782.44315625,50.003044921875L782.44315625,61.235044921875L782.29915625,61.379044921875Q781.14715625,61.091044921875,779.67115625,60.875044921875Q778.19515625,60.659044921875,776.32315625,60.659044921875Q773.65915625,60.659044921875,771.53515625,61.523044921875Q769.41115625,62.387044921875,768.22315625,64.871044921875Q767.03515625,67.35504492187499,767.03515625,72.251044921875L766.89115625,84.923044921875ZM799.00315625,85.571044921875Q792.37915625,85.571044921875,789.57115625,82.043044921875Q786.76315625,78.515044921875,786.76315625,71.963044921875L786.76315625,49.859044921875L798.28315625,49.859044921875L798.35515625,69.155044921875Q798.35515625,72.395044921875,799.50715625,73.727044921875Q800.65915625,75.059044921875,804.18715625,75.059044921875Q807.57115625,75.059044921875,808.75915625,73.871044921875Q809.94715625,72.683044921875,810.01915625,69.803044921875L810.01915625,49.859044921875L821.53915625,49.859044921875L821.53915625,84.923044921875L810.59515625,84.923044921875L810.01915625,80.963044921875L809.80315625,80.963044921875Q808.86715625,83.051044921875,805.98715625,84.311044921875Q803.10715625,85.571044921875,799.00315625,85.571044921875ZM857.46715625,74.771044921875L857.46715625,84.131044921875Q855.66715625,84.851044921875,852.13915625,85.211044921875Q848.61115625,85.571044921875,844.65115625,85.571044921875Q838.96315625,85.571044921875,835.18315625,83.987044921875Q831.40315625,82.403044921875,829.56715625,78.515044921875Q827.73115625,74.627044921875,827.65915625,67.715044921875Q827.65915625,60.587044921875,829.63915625,56.627044921875Q831.61915625,52.667044921875,835.43515625,51.083044921875Q839.25115625,49.499044921875,844.57915625,49.499044921875Q847.74715625,49.499044921875,851.27515625,49.931044921875Q854.80315625,50.363044921875,857.03515625,51.083044921875L857.10715625,60.731044921875L856.89115625,60.875044921875Q854.73115625,60.443044921875,852.28315625,60.227044921875Q849.83515625,60.011044921875,847.45915625,60.011044921875Q842.63515625,60.011044921875,840.76315625,61.811044921875Q838.89115625,63.611044921875,838.89115625,67.859044921875Q838.89115625,71.09904492187499,839.68315625,72.683044921875Q840.47515625,74.267044921875,842.34715625,74.771044921875Q844.21915625,75.275044921875,847.45915625,75.275044921875Q849.97915625,75.275044921875,852.28315625,75.059044921875Q854.58715625,74.843044921875,857.17915625,74.555044921875L857.46715625,74.771044921875ZM864.66715625,74.411044921875L864.66715625,59.291044921875L860.34715625,59.291044921875L860.34715625,49.931044921875L865.74715625,49.931044921875L867.90715625,41.363044921875L876.18715625,41.363044921875L876.18715625,49.931044921875L884.03515625,49.931044921875L884.03515625,59.291044921875L876.18715625,59.291044921875L876.18715625,71.891044921875Q876.18715625,73.907044921875,876.69115625,74.663044921875Q877.19515625,75.419044921875,878.99515625,75.419044921875Q880.14715625,75.419044921875,881.44315625,75.311044921875Q882.73915625,75.203044921875,884.03515625,75.059044921875L884.25115625,75.203044921875L884.25115625,84.563044921875Q880.79515625,85.571044921875,875.10715625,85.571044921875Q869.41915625,85.571044921875,867.04315625,82.979044921875Q864.66715625,80.387044921875,864.66715625,74.411044921875ZM901.60315625,36.827044921875Q901.81915625,39.419044921875,901.81915625,41.147044921875Q901.81915625,42.155044921875,901.78315625,43.199044921875Q901.74715625,44.243044921875,901.60315625,45.539044921875Q900.09115625,45.827044921875,898.65115625,45.971044921875Q897.21115625,46.115044921875,895.77115625,46.115044921875Q894.40315625,46.115044921875,892.99915625,45.971044921875Q891.59515625,45.827044921875,890.15515625,45.539044921875Q890.01115625,44.315044921875,889.93915625,43.271044921875Q889.86715625,42.227044921875,889.86715625,41.219044921874996Q889.86715625,40.283044921875,889.93915625,39.203044921875005Q890.01115625,38.123044921875,890.15515625,36.827044921875Q891.59515625,36.467044921875,893.07115625,36.359044921875Q894.54715625,36.251044921875,895.98715625,36.251044921875Q897.35515625,36.251044921875,898.75915625,36.359044921875Q900.16315625,36.467044921875,901.60315625,36.827044921875ZM901.60315625,84.923044921875L890.08315625,84.923044921875L890.08315625,49.859044921875L901.60315625,49.859044921875L901.60315625,84.923044921875ZM907.07515625,67.643044921875Q907.07515625,57.995044921875,911.17915625,53.747044921875Q915.28315625,49.499044921875,925.07515625,49.499044921875Q931.62715625,49.499044921875,935.58715625,51.371044921875Q939.54715625,53.243044921875,941.31115625,57.239044921875Q943.07515625,61.235044921875,943.07515625,67.643044921875Q943.07515625,73.979044921875,941.31115625,77.939044921875Q939.54715625,81.899044921875,935.58715625,83.735044921875Q931.62715625,85.571044921875,925.07515625,85.571044921875Q915.28315625,85.571044921875,911.17915625,81.359044921875Q907.07515625,77.147044921875,907.07515625,67.643044921875ZM925.07515625,75.707044921875Q929.25115625,75.707044921875,930.72715625,73.871044921875Q932.20315625,72.035044921875,932.20315625,67.427044921875Q932.20315625,63.035044921875,930.72715625,61.127044921875Q929.25115625,59.219044921875,925.07515625,59.219044921875Q921.04315625,59.219044921875,919.49515625,61.127044921875Q917.94715625,63.035044921875,917.94715625,67.427044921875Q917.94715625,72.035044921875,919.49515625,73.871044921875Q921.04315625,75.707044921875,925.07515625,75.707044921875ZM960.71515625,84.923044921875L949.19515625,84.923044921875L949.19515625,49.859044921875L960.13915625,49.859044921875L960.71515625,56.267044921875L960.93115625,56.267044921875Q961.93915625,53.027044921875,964.53115625,51.263044921875Q967.12315625,49.499044921875,971.73115625,49.499044921875Q977.99515625,49.499044921875,980.98315625,53.027044921875Q983.97115625,56.555044921875,983.97115625,65.267044921875L983.97115625,84.923044921875L972.45115625,84.923044921875L972.37915625,67.499044921875Q972.37915625,63.467044921875,971.15515625,61.739044921875Q969.93115625,60.011044921875,966.54715625,60.011044921875Q963.37915625,60.011044921875,962.08315625,61.559044921875Q960.78715625,63.107044921875,960.71515625,66.851044921875L960.71515625,84.923044921875Z" fill="#3D3D3D" fill-opacity="1"/></g><g transform="matrix(0.7071067690849304,-0.7071067690849304,0.7071067690849304,0.7071067690849304,-56.41787791591196,44.93728119308071)"><path d="M100.23115625,85.571044921875L76.94685625,62.286744921875Q76.77315625,62.113044921875,76.61735625,61.923244921874996Q76.46145625,61.733344921875,76.32505625,61.529144921875Q76.18855625,61.324844921875,76.07275625,61.108244921875Q75.95695624999999,60.891644921875,75.86295625,60.664644921874995Q75.76895625,60.437744921875,75.69765625,60.202644921875Q75.62635625,59.967644921875,75.57845625,59.726744921874996Q75.53055624999999,59.485744921874996,75.50645625,59.241344921875Q75.48235625000001,58.996844921874995,75.48235625000001,58.751244921875Q75.48235625000001,58.505644921875,75.50645625,58.261144921875Q75.53055624999999,58.016744921875,75.57845625,57.775844921875Q75.62635625,57.534844921875,75.69765625,57.299844921875Q75.76895625,57.064744921875,75.86295625,56.837844921875Q75.95695624999999,56.610944921875,76.07275625,56.394244921875Q76.18855625,56.177644921875,76.32505625,55.973444921875Q76.46145625,55.769144921875,76.61735625,55.579244921875Q76.77315625,55.389444921875,76.94685625,55.215744921875Q77.03365625,55.128944921875,77.12455625,55.046444921875Q77.21555624999999,54.964044921875,77.31045625,54.886144921875Q77.40525625000001,54.808344921875,77.50385625,54.735244921875Q77.60245625,54.662044921875,77.70455625,54.593944921875Q77.80655625,54.525744921875,77.91185625,54.462644921875Q78.01715625,54.399544921875,78.12535625000001,54.341644921875Q78.23365625,54.283744921875,78.34455625,54.231344921875Q78.45555625,54.178844921875,78.56895625,54.131844921875Q78.68235625,54.084844921875,78.79795625,54.043544921875Q78.91345625,54.002144921875,79.03095625,53.966544921875Q79.14835625,53.930944921875,79.26745625000001,53.901144921875Q79.38655625,53.871244921875,79.50695625,53.847344921875Q79.62725625,53.823344921875,79.74875625,53.805344921875Q79.87015625000001,53.787344921875,79.99225625,53.775344921875Q80.11445625,53.763244921875,80.23705625,53.757244921875Q80.35965625,53.751244921875,80.48235625000001,53.751244921875Q80.60515625,53.751244921875,80.72775625,53.757244921875Q80.85025625,53.763244921875,80.97245625,53.775344921875Q81.09455625,53.787344921875,81.21605625000001,53.805344921875Q81.33745625,53.823344921875,81.45785624999999,53.847344921875Q81.57815625,53.871244921875,81.69725625000001,53.901144921875Q81.81635625,53.930944921875,81.93375625,53.966544921875Q82.05125625,54.002144921875,82.16685625,54.043544921875Q82.28235624999999,54.084844921875,82.39575625,54.131844921875Q82.50915624999999,54.178844921875,82.62015625000001,54.231344921875Q82.73105625,54.283744921875,82.83935625000001,54.341644921875Q82.94755624999999,54.399444921875,83.05285624999999,54.462644921875Q83.15815624999999,54.525744921875,83.26025625,54.593944921875Q83.36225625,54.662044921875,83.46085625,54.735244921875Q83.55945625,54.808344921875,83.65435625,54.886144921875Q83.74925625,54.964044921875,83.84015625,55.046444921875Q83.93115625,55.128944921875,84.01795625,55.215744921875L115.83295625,87.030744921875L115.83775625,87.035514921875L115.83775625,87.035594921875Q116.14295625,87.340794921875,116.39135625,87.693774921875Q116.63975625,88.046754921875,116.82395625,88.437074921875Q117.00815625,88.827394921875,117.12275625,89.243514921875Q117.23735625,89.659626921875,117.27895625,90.089222921875Q117.30215625,90.329574921875,117.30215625,90.571049670395Q117.30215625,90.816682921875,117.27815625,91.061133921875Q117.25405625,91.305584921875,117.20615625,91.546498921875Q117.15815625,91.787414921875,117.08685625,92.022464921875Q117.01555625,92.257524921875,116.92155625,92.484464921875Q116.82755625,92.711394921875,116.71175625,92.928024921875Q116.59595625,93.144654921875,116.45955625,93.348894921875Q116.32305625,93.553134921875,116.16725625,93.743014921875Q116.01135625,93.932884921875,115.83775625,94.106574921875L115.83295625,94.111344921875L84.01795625,125.926344921875Q83.93115625,126.01314492187501,83.84015625,126.09564492187499Q83.74925625,126.178044921875,83.65435625,126.255944921875Q83.55945625,126.333744921875,83.46085625,126.406844921875Q83.36225625,126.48004492187499,83.26025625,126.54814492187501Q83.15815624999999,126.616344921875,83.05285624999999,126.679444921875Q82.94755624999999,126.742644921875,82.83935625000001,126.800444921875Q82.73105625,126.858344921875,82.62015625000001,126.910744921875Q82.50915624999999,126.963244921875,82.39575625,127.010244921875Q82.28235624999999,127.057244921875,82.16685625,127.098544921875Q82.05125625,127.139944921875,81.93375625,127.175544921875Q81.81635625,127.21114492187499,81.69725625000001,127.240944921875Q81.57815625,127.27084492187501,81.45785624999999,127.29474492187501Q81.33745625,127.31874492187501,81.21605625000001,127.33674492187501Q81.09455625,127.35474492187501,80.97245625,127.366744921875Q80.85025625,127.378844921875,80.72765625,127.384844921875Q80.60515625,127.390844921875,80.48235625000001,127.390844921875Q80.35965625,127.390844921875,80.23705625,127.384844921875Q80.11445625,127.378844921875,79.99225625,127.366744921875Q79.87015625000001,127.35474492187501,79.74875625,127.33674492187501Q79.62725625,127.31874492187501,79.50695625,127.29474492187501Q79.38655625,127.27084492187501,79.26745625000001,127.240944921875Q79.14835625,127.21114492187499,79.03095625,127.175544921875Q78.91345625,127.139944921875,78.79795625,127.098544921875Q78.68235625,127.057244921875,78.56895625,127.010244921875Q78.45555625,126.963244921875,78.34455625,126.910744921875Q78.23365625,126.858344921875,78.12535625000001,126.800444921875Q78.01715625,126.742644921875,77.91185625,126.679444921875Q77.80655625,126.616344921875,77.70455625,126.54814492187501Q77.60245625,126.48004492187499,77.50385625,126.406844921875Q77.40525625000001,126.333744921875,77.31045625,126.255944921875Q77.21555624999999,126.178044921875,77.12455625,126.09564492187499Q77.03365625,126.01314492187501,76.94685625,125.926344921875Q76.77315625,125.752644921875,76.61735625,125.562844921875Q76.46145625,125.372944921875,76.32505625,125.168644921875Q76.18855625,124.964444921875,76.07275625,124.747844921875Q75.95695624999999,124.531144921875,75.86295625,124.304244921875Q75.76895625,124.07734492187501,75.69765625,123.842244921875Q75.62635625,123.60724492187501,75.57845625,123.366244921875Q75.53055624999999,123.125344921875,75.50645625,122.880944921875Q75.48235625000001,122.636444921875,75.48235625000001,122.390844921875Q75.48235625000001,122.145244921875,75.50645625,121.900744921875Q75.53055624999999,121.656344921875,75.57845625,121.415344921875Q75.62635625,121.174444921875,75.69765625,120.93944492187501Q75.76895625,120.70434492187499,75.86295625,120.477444921875Q75.95695624999999,120.250444921875,76.07275625,120.033844921875Q76.18855625,119.817244921875,76.32505625,119.612944921875Q76.46145625,119.408744921875,76.61735625,119.218844921875Q76.77315625,119.029044921875,76.94685625,118.855344921875L100.23115625,95.571044921875L26.03515625,95.571044921875L26.03515625,85.571044921875L100.23115625,85.571044921875Z" fill-rule="evenodd" fill="#00F35A" fill-opacity="1"/></g></g></svg>